REM COMMENT "Generated by IcecastMetadataRecorder https://github.com/eshaz/icecast-metadata-js"
REM BR "16"
REM METAINT "64"
REM DATE "2020-07-29T21:16:11.222Z"
TITLE "isics-all"
FILE "isics-all.mp3" WAVE
  TRACK 1 AUDIO
    TITLE "2020-07-29T21:22:32.726Z TO:41 Polk County - West Des Moines Fire Paging FROM:1007"
    INDEX 01 06:21:38
  TRACK 2 AUDIO
    TITLE "2020-07-29T21:22:42.550Z TO:177 Polk County - Westcom Fire 2 FROM:1007"
    INDEX 01 06:31:25
  TRACK 3 AUDIO
    TITLE "2020-07-29T21:22:53.046Z TO:175 Polk County - Westcom Fire 1 FROM:1007"
    INDEX 01 06:41:62
  TRACK 4 AUDIO
    TITLE "2020-07-29T21:23:02.838Z TO:1101 Polk County - Westcom Law Enforcement 1 FROM:1004"
    INDEX 01 06:51:46
  TRACK 5 AUDIO
    TITLE "2020-07-29T21:23:06.326Z TO:1101 Polk County - Westcom Law Enforcement 1 FROM:1384"
    INDEX 01 06:55:08
  TRACK 6 AUDIO
    TITLE "2020-07-29T21:23:09.142Z TO:1101 Polk County - Westcom Law Enforcement 1 FROM:1004"
    INDEX 01 06:57:69
  TRACK 7 AUDIO
    TITLE "2020-07-29T21:23:11.222Z TO:177 Polk County - Westcom Fire 2 FROM:1007"
    INDEX 01 07:00:00
  TRACK 8 AUDIO
    TITLE "2020-07-29T21:23:21.750Z TO:41 Polk County - West Des Moines Fire Paging FROM:1007"
    INDEX 01 07:10:40
  TRACK 9 AUDIO
    TITLE "2020-07-29T21:23:31.542Z TO:175 Polk County - Westcom Fire 1 FROM:1007"
    INDEX 01 07:20:24
  TRACK 10 AUDIO
    TITLE "END"
    INDEX 01 07:30:61